#ifndef MELODIE_STARWARS_H
#define MELODIE_STARWARS_H

#include "pitches.h"

// Melodie de Star Wars
int melodie_StarWars[] = {
  NOTE_A2, NOTE_A2, NOTE_A2, NOTE_F2, NOTE_C3, NOTE_A2, NOTE_F2, NOTE_C3, NOTE_A2, REST,
  NOTE_E3, NOTE_E3, NOTE_E3, NOTE_F3, NOTE_C3, NOTE_GS2, NOTE_F2, NOTE_C3, NOTE_A2, REST,
  NOTE_A3, NOTE_A2, NOTE_A2, NOTE_A3, NOTE_G3, NOTE_F3, NOTE_E3, NOTE_D3, NOTE_AS3, NOTE_A3, NOTE_G3, NOTE_F3, NOTE_E3, NOTE_D3, NOTE_AS3,
  NOTE_A3, NOTE_G3, NOTE_F3, NOTE_G3, NOTE_A3, NOTE_G3, NOTE_A3,
  NOTE_A4, NOTE_A3, NOTE_A3, NOTE_A4, NOTE_G4, NOTE_F4, NOTE_E4, NOTE_D4, NOTE_AS4, NOTE_A4, NOTE_G4, NOTE_F4, NOTE_E4, NOTE_D4, NOTE_AS4,
  NOTE_A4, NOTE_G4, NOTE_F4, NOTE_G4, NOTE_A4, NOTE_G4, NOTE_A4,
  NOTE_A5, NOTE_A4, NOTE_A4, NOTE_A5, NOTE_G5, NOTE_F5, NOTE_E5, NOTE_D5, NOTE_AS5, NOTE_A5, NOTE_G5, NOTE_F5, NOTE_E5, NOTE_D5, NOTE_AS5,
  NOTE_A5, NOTE_G5, NOTE_F5, NOTE_G5, NOTE_A5, NOTE_G5, NOTE_A5,
  NOTE_A2, NOTE_A2, NOTE_A2, NOTE_F2, NOTE_C3, NOTE_A2, NOTE_F2, NOTE_C3, NOTE_A2, REST,
  NOTE_E3, NOTE_E3, NOTE_E3, NOTE_F3, NOTE_C3, NOTE_GS2, NOTE_F2, NOTE_C3, NOTE_A2, REST,
  NOTE_A3, NOTE_A2, NOTE_A2, NOTE_A3, NOTE_G3, NOTE_F3, NOTE_E3, NOTE_D3, NOTE_AS3, NOTE_A3, NOTE_G3, NOTE_F3, NOTE_E3, NOTE_D3, NOTE_AS3,
  NOTE_A3, NOTE_G3, NOTE_F3, NOTE_G3, NOTE_A3, NOTE_G3, NOTE_A3,
  NOTE_A4, NOTE_A3, NOTE_A3, NOTE_A4, NOTE_G4, NOTE_F4, NOTE_E4, NOTE_D4, NOTE_AS4, NOTE_A4, NOTE_G4, NOTE_F4, NOTE_E4, NOTE_D4, NOTE_AS4,
  NOTE_A4, NOTE_G4, NOTE_F4, NOTE_G4, NOTE_A4, NOTE_G4, NOTE_A4,
  NOTE_A5, NOTE_A4, NOTE_A4, NOTE_A5, NOTE_G5, NOTE_F5, NOTE_E5, NOTE_D5, NOTE_AS5, NOTE_A5, NOTE_G5, NOTE_F5, NOTE_E5, NOTE_D5, NOTE_AS5,
  NOTE_A5, NOTE_G5, NOTE_F5, NOTE_G5, NOTE_A5, NOTE_G5, NOTE_A5,
};

// Durées des notes de la mélodie de Star Wars
int duree_StarWars[] = {
  500, 500, 500, 350, 150, 500, 350, 150, 1000, 500,
  500, 500, 500, 350, 150, 500, 350, 150, 1000, 500,
  325, 150, 500, 325, 150, 250, 250, 500, 250, 1000, 500, 325, 150, 250, 250,
  500, 250, 1000, 500, 500, 500, 500, 350, 150, 500, 250, 325, 150, 250, 250,
  500, 250, 1000, 500, 325, 150, 250, 250, 500, 250, 1000, 500, 500, 500, 500,
  350, 150, 500, 250, 325, 150, 250, 250, 500, 250, 1000, 500, 325, 150, 250, 250,
  500, 250, 1000, 500, 500, 500, 500, 350, 150, 500, 150, 1000, 500, 500, 500, 500,
  350, 150, 500, 150, 1000, 500, 500, 500, 500, 350, 150, 500, 150, 1000, 500, 500
};

// Taille de la mélodie de Star Wars
int taille_StarWars = 113;

#endif // MELODIE_STARWARS_H